M48
; DRILL file {KiCad (5.1.6)-1} date 08/01/20 22:19:16
; FORMAT={-:-/ absolute / inch / decimal}
; #@! TF.CreationDate,2020-08-01T22:19:16+05:30
; #@! TF.GenerationSoftware,Kicad,Pcbnew,(5.1.6)-1
; #@! TF.FileFunction,Plated,1,2,PTH
FMAT,2
INCH
T1C0.0157
T2C0.0236
T3C0.0394
T4C0.1772
%
G90
G05
T1
X1.5909Y-1.7291
X1.6055Y-1.9969
X1.6752Y-1.7669
X1.7244Y-2.1059
X1.7516Y-1.9776
X1.9496Y-1.9776
X1.9575Y-2.5469
X2.0531Y-1.8039
X2.0632Y-2.1404
X2.0632Y-2.8337
X2.0917Y-2.0925
X2.1311Y-1.8303
X2.1433Y-2.1445
X2.172Y-1.7488
X2.172Y-1.8492
X2.1838Y-1.6967
X2.2169Y-1.7878
X2.2315Y-2.1433
X2.2787Y-1.9179
X2.3953Y-2.0252
X2.4815Y-1.8961
X2.4898Y-2.665
X2.5291Y-2.0569
X2.5961Y-1.513
X2.6201Y-1.7189
X2.6417Y-2.3835
X2.6807Y-1.7118
X2.6807Y-1.928
X2.685Y-1.4854
X2.7165Y-1.7799
X2.7173Y-1.9846
X2.763Y-1.6075
X2.763Y-1.7378
X2.763Y-2.0224
T2
X1.2081Y-1.4354
X1.247Y-1.3415
X1.247Y-1.5294
X1.3409Y-1.3026
X1.3409Y-1.5683
X1.4349Y-1.3415
X1.4349Y-1.5294
X1.4738Y-1.4354
X2.8081Y-3.0354
X2.847Y-2.9415
X2.847Y-3.1294
X2.9409Y-2.9026
X2.9409Y-3.1683
X3.0349Y-2.9415
X3.0349Y-3.1294
X3.0738Y-3.0354
X1.2081Y-3.0354
X1.247Y-2.9415
X1.247Y-3.1294
X1.3409Y-2.9026
X1.3409Y-3.1683
X1.4349Y-2.9415
X1.4349Y-3.1294
X1.4738Y-3.0354
X2.8081Y-1.4354
X2.847Y-1.3415
X2.847Y-1.5294
X2.9409Y-1.3026
X2.9409Y-1.5683
X3.0349Y-1.3415
X3.0349Y-1.5294
X3.0738Y-1.4354
T3
X2.9909Y-2.0854
X2.9909Y-2.1854
X1.6909Y-3.0854
X1.7909Y-3.0854
X1.8909Y-3.0854
X1.9909Y-3.0854
X2.0909Y-3.0854
X2.1909Y-3.0854
X2.2909Y-3.0854
X2.3909Y-3.0854
X2.4909Y-3.0854
X2.5909Y-3.0854
X2.9909Y-1.7854
X2.9909Y-1.8854
X2.2409Y-1.3854
X2.3409Y-1.3854
X2.4409Y-1.3854
X2.5409Y-1.3854
X2.6409Y-1.3854
X1.2543Y-1.787
X1.2543Y-1.887
X1.2543Y-1.987
X1.2543Y-2.087
X1.2543Y-2.187
X1.2543Y-2.287
X1.2543Y-2.387
X1.2543Y-2.487
X1.2543Y-2.587
X1.2543Y-2.687
X1.4098Y-1.7882
X1.4098Y-1.8882
X1.4098Y-1.9882
X1.4098Y-2.0882
X1.4098Y-2.1882
X1.4098Y-2.2882
X1.4098Y-2.3882
X1.4098Y-2.4882
X1.4098Y-2.5882
X1.4098Y-2.6882
X1.6409Y-1.3854
X1.7409Y-1.3854
X1.8409Y-1.3854
X1.9409Y-1.3854
X2.0409Y-1.3854
T4
X1.3409Y-1.4354
X2.9409Y-3.0354
X1.3409Y-3.0354
X2.9409Y-1.4354
T0
M30
