%TF.GenerationSoftware,KiCad,Pcbnew,(5.1.6)-1*%
%TF.CreationDate,2020-08-01T22:19:46+05:30*%
%TF.ProjectId,first,66697273-742e-46b6-9963-61645f706362,rev?*%
%TF.SameCoordinates,Original*%
%TF.FileFunction,Legend,Bot*%
%TF.FilePolarity,Positive*%
%FSLAX46Y46*%
G04 Gerber Fmt 4.6, Leading zero omitted, Abs format (unit mm)*
G04 Created by KiCad (PCBNEW (5.1.6)-1) date 2020-08-01 22:19:46*
%MOMM*%
%LPD*%
G01*
G04 APERTURE LIST*
%ADD10C,0.250000*%
%ADD11C,0.400000*%
%ADD12C,0.120000*%
%ADD13C,0.100000*%
%ADD14C,0.150000*%
G04 APERTURE END LIST*
D10*
X57325238Y-64552380D02*
X57325238Y-63552380D01*
X56991904Y-64266666D01*
X56658571Y-63552380D01*
X56658571Y-64552380D01*
X55753809Y-64552380D02*
X55753809Y-64028571D01*
X55801428Y-63933333D01*
X55896666Y-63885714D01*
X56087142Y-63885714D01*
X56182380Y-63933333D01*
X55753809Y-64504761D02*
X55849047Y-64552380D01*
X56087142Y-64552380D01*
X56182380Y-64504761D01*
X56230000Y-64409523D01*
X56230000Y-64314285D01*
X56182380Y-64219047D01*
X56087142Y-64171428D01*
X55849047Y-64171428D01*
X55753809Y-64123809D01*
X54849047Y-64552380D02*
X54849047Y-63552380D01*
X54849047Y-64504761D02*
X54944285Y-64552380D01*
X55134761Y-64552380D01*
X55230000Y-64504761D01*
X55277619Y-64457142D01*
X55325238Y-64361904D01*
X55325238Y-64076190D01*
X55277619Y-63980952D01*
X55230000Y-63933333D01*
X55134761Y-63885714D01*
X54944285Y-63885714D01*
X54849047Y-63933333D01*
X53991904Y-64504761D02*
X54087142Y-64552380D01*
X54277619Y-64552380D01*
X54372857Y-64504761D01*
X54420476Y-64409523D01*
X54420476Y-64028571D01*
X54372857Y-63933333D01*
X54277619Y-63885714D01*
X54087142Y-63885714D01*
X53991904Y-63933333D01*
X53944285Y-64028571D01*
X53944285Y-64123809D01*
X54420476Y-64219047D01*
X52753809Y-64552380D02*
X52753809Y-63552380D01*
X52753809Y-63933333D02*
X52658571Y-63885714D01*
X52468095Y-63885714D01*
X52372857Y-63933333D01*
X52325238Y-63980952D01*
X52277619Y-64076190D01*
X52277619Y-64361904D01*
X52325238Y-64457142D01*
X52372857Y-64504761D01*
X52468095Y-64552380D01*
X52658571Y-64552380D01*
X52753809Y-64504761D01*
X51944285Y-63885714D02*
X51706190Y-64552380D01*
X51468095Y-63885714D02*
X51706190Y-64552380D01*
X51801428Y-64790476D01*
X51849047Y-64838095D01*
X51944285Y-64885714D01*
X50325238Y-64552380D02*
X50325238Y-63552380D01*
X49944285Y-63552380D01*
X49849047Y-63600000D01*
X49801428Y-63647619D01*
X49753809Y-63742857D01*
X49753809Y-63885714D01*
X49801428Y-63980952D01*
X49849047Y-64028571D01*
X49944285Y-64076190D01*
X50325238Y-64076190D01*
X49325238Y-64552380D02*
X49325238Y-63885714D01*
X49325238Y-64076190D02*
X49277619Y-63980952D01*
X49230000Y-63933333D01*
X49134761Y-63885714D01*
X49039523Y-63885714D01*
X48277619Y-64552380D02*
X48277619Y-64028571D01*
X48325238Y-63933333D01*
X48420476Y-63885714D01*
X48610952Y-63885714D01*
X48706190Y-63933333D01*
X48277619Y-64504761D02*
X48372857Y-64552380D01*
X48610952Y-64552380D01*
X48706190Y-64504761D01*
X48753809Y-64409523D01*
X48753809Y-64314285D01*
X48706190Y-64219047D01*
X48610952Y-64171428D01*
X48372857Y-64171428D01*
X48277619Y-64123809D01*
X47896666Y-63885714D02*
X47658571Y-64552380D01*
X47420476Y-63885714D01*
X46658571Y-64504761D02*
X46753809Y-64552380D01*
X46944285Y-64552380D01*
X47039523Y-64504761D01*
X47087142Y-64409523D01*
X47087142Y-64028571D01*
X47039523Y-63933333D01*
X46944285Y-63885714D01*
X46753809Y-63885714D01*
X46658571Y-63933333D01*
X46610952Y-64028571D01*
X46610952Y-64123809D01*
X47087142Y-64219047D01*
X46230000Y-64504761D02*
X46134761Y-64552380D01*
X45944285Y-64552380D01*
X45849047Y-64504761D01*
X45801428Y-64409523D01*
X45801428Y-64361904D01*
X45849047Y-64266666D01*
X45944285Y-64219047D01*
X46087142Y-64219047D01*
X46182380Y-64171428D01*
X46230000Y-64076190D01*
X46230000Y-64028571D01*
X46182380Y-63933333D01*
X46087142Y-63885714D01*
X45944285Y-63885714D01*
X45849047Y-63933333D01*
X45372857Y-64552380D02*
X45372857Y-63552380D01*
X44944285Y-64552380D02*
X44944285Y-64028571D01*
X44991904Y-63933333D01*
X45087142Y-63885714D01*
X45230000Y-63885714D01*
X45325238Y-63933333D01*
X45372857Y-63980952D01*
X43706190Y-64552380D02*
X43706190Y-63552380D01*
X43134761Y-64552380D01*
X43134761Y-63552380D01*
X42230000Y-64552380D02*
X42230000Y-64028571D01*
X42277619Y-63933333D01*
X42372857Y-63885714D01*
X42563333Y-63885714D01*
X42658571Y-63933333D01*
X42230000Y-64504761D02*
X42325238Y-64552380D01*
X42563333Y-64552380D01*
X42658571Y-64504761D01*
X42706190Y-64409523D01*
X42706190Y-64314285D01*
X42658571Y-64219047D01*
X42563333Y-64171428D01*
X42325238Y-64171428D01*
X42230000Y-64123809D01*
X41753809Y-64552380D02*
X41753809Y-63885714D01*
X41753809Y-64076190D02*
X41706190Y-63980952D01*
X41658571Y-63933333D01*
X41563333Y-63885714D01*
X41468095Y-63885714D01*
X40706190Y-64552380D02*
X40706190Y-64028571D01*
X40753809Y-63933333D01*
X40849047Y-63885714D01*
X41039523Y-63885714D01*
X41134761Y-63933333D01*
X40706190Y-64504761D02*
X40801428Y-64552380D01*
X41039523Y-64552380D01*
X41134761Y-64504761D01*
X41182380Y-64409523D01*
X41182380Y-64314285D01*
X41134761Y-64219047D01*
X41039523Y-64171428D01*
X40801428Y-64171428D01*
X40706190Y-64123809D01*
X40325238Y-63885714D02*
X40087142Y-64552380D01*
X39849047Y-63885714D02*
X40087142Y-64552380D01*
X40182380Y-64790476D01*
X40230000Y-64838095D01*
X40325238Y-64885714D01*
X39039523Y-64552380D02*
X39039523Y-64028571D01*
X39087142Y-63933333D01*
X39182380Y-63885714D01*
X39372857Y-63885714D01*
X39468095Y-63933333D01*
X39039523Y-64504761D02*
X39134761Y-64552380D01*
X39372857Y-64552380D01*
X39468095Y-64504761D01*
X39515714Y-64409523D01*
X39515714Y-64314285D01*
X39468095Y-64219047D01*
X39372857Y-64171428D01*
X39134761Y-64171428D01*
X39039523Y-64123809D01*
X38563333Y-63885714D02*
X38563333Y-64552380D01*
X38563333Y-63980952D02*
X38515714Y-63933333D01*
X38420476Y-63885714D01*
X38277619Y-63885714D01*
X38182380Y-63933333D01*
X38134761Y-64028571D01*
X38134761Y-64552380D01*
D11*
X56801904Y-61144761D02*
X56420952Y-61144761D01*
X56230476Y-61240000D01*
X56040000Y-61430476D01*
X55944761Y-61811428D01*
X55944761Y-62478095D01*
X56040000Y-62859047D01*
X56230476Y-63049523D01*
X56420952Y-63144761D01*
X56801904Y-63144761D01*
X56992380Y-63049523D01*
X57182857Y-62859047D01*
X57278095Y-62478095D01*
X57278095Y-61811428D01*
X57182857Y-61430476D01*
X56992380Y-61240000D01*
X56801904Y-61144761D01*
X55087619Y-63144761D02*
X55087619Y-61811428D01*
X55087619Y-62192380D02*
X54992380Y-62001904D01*
X54897142Y-61906666D01*
X54706666Y-61811428D01*
X54516190Y-61811428D01*
X53849523Y-63144761D02*
X53849523Y-61144761D01*
X53849523Y-61906666D02*
X53659047Y-61811428D01*
X53278095Y-61811428D01*
X53087619Y-61906666D01*
X52992380Y-62001904D01*
X52897142Y-62192380D01*
X52897142Y-62763809D01*
X52992380Y-62954285D01*
X53087619Y-63049523D01*
X53278095Y-63144761D01*
X53659047Y-63144761D01*
X53849523Y-63049523D01*
X52040000Y-63144761D02*
X52040000Y-61811428D01*
X52040000Y-61144761D02*
X52135238Y-61240000D01*
X52040000Y-61335238D01*
X51944761Y-61240000D01*
X52040000Y-61144761D01*
X52040000Y-61335238D01*
X51373333Y-61811428D02*
X50611428Y-61811428D01*
X51087619Y-61144761D02*
X51087619Y-62859047D01*
X50992380Y-63049523D01*
X50801904Y-63144761D01*
X50611428Y-63144761D01*
D12*
%TO.C,U1*%
X40810000Y-43440000D02*
X42070000Y-43440000D01*
X47630000Y-43440000D02*
X46370000Y-43440000D01*
X40810000Y-47200000D02*
X40810000Y-43440000D01*
X47630000Y-49450000D02*
X47630000Y-43440000D01*
%TO.C,C1_V1*%
D13*
X43690952Y-52632857D02*
X43710000Y-52651904D01*
X43767142Y-52670952D01*
X43805238Y-52670952D01*
X43862380Y-52651904D01*
X43900476Y-52613809D01*
X43919523Y-52575714D01*
X43938571Y-52499523D01*
X43938571Y-52442380D01*
X43919523Y-52366190D01*
X43900476Y-52328095D01*
X43862380Y-52290000D01*
X43805238Y-52270952D01*
X43767142Y-52270952D01*
X43710000Y-52290000D01*
X43690952Y-52309047D01*
X43310000Y-52670952D02*
X43538571Y-52670952D01*
X43424285Y-52670952D02*
X43424285Y-52270952D01*
X43462380Y-52328095D01*
X43500476Y-52366190D01*
X43538571Y-52385238D01*
X43233809Y-52709047D02*
X42929047Y-52709047D01*
X42890952Y-52270952D02*
X42757619Y-52670952D01*
X42624285Y-52270952D01*
X42281428Y-52670952D02*
X42510000Y-52670952D01*
X42395714Y-52670952D02*
X42395714Y-52270952D01*
X42433809Y-52328095D01*
X42471904Y-52366190D01*
X42510000Y-52385238D01*
%TO.C,C2_V1*%
X43710952Y-51692857D02*
X43730000Y-51711904D01*
X43787142Y-51730952D01*
X43825238Y-51730952D01*
X43882380Y-51711904D01*
X43920476Y-51673809D01*
X43939523Y-51635714D01*
X43958571Y-51559523D01*
X43958571Y-51502380D01*
X43939523Y-51426190D01*
X43920476Y-51388095D01*
X43882380Y-51350000D01*
X43825238Y-51330952D01*
X43787142Y-51330952D01*
X43730000Y-51350000D01*
X43710952Y-51369047D01*
X43558571Y-51369047D02*
X43539523Y-51350000D01*
X43501428Y-51330952D01*
X43406190Y-51330952D01*
X43368095Y-51350000D01*
X43349047Y-51369047D01*
X43330000Y-51407142D01*
X43330000Y-51445238D01*
X43349047Y-51502380D01*
X43577619Y-51730952D01*
X43330000Y-51730952D01*
X43253809Y-51769047D02*
X42949047Y-51769047D01*
X42910952Y-51330952D02*
X42777619Y-51730952D01*
X42644285Y-51330952D01*
X42301428Y-51730952D02*
X42530000Y-51730952D01*
X42415714Y-51730952D02*
X42415714Y-51330952D01*
X42453809Y-51388095D01*
X42491904Y-51426190D01*
X42530000Y-51445238D01*
%TO.C,U1*%
D14*
X45171904Y-39762380D02*
X45171904Y-40571904D01*
X45124285Y-40667142D01*
X45076666Y-40714761D01*
X44981428Y-40762380D01*
X44790952Y-40762380D01*
X44695714Y-40714761D01*
X44648095Y-40667142D01*
X44600476Y-40571904D01*
X44600476Y-39762380D01*
X43600476Y-40762380D02*
X44171904Y-40762380D01*
X43886190Y-40762380D02*
X43886190Y-39762380D01*
X43981428Y-39905238D01*
X44076666Y-40000476D01*
X44171904Y-40048095D01*
%TD*%
M02*
