%TF.GenerationSoftware,KiCad,Pcbnew,(5.1.6)-1*%
%TF.CreationDate,2020-08-01T22:19:46+05:30*%
%TF.ProjectId,first,66697273-742e-46b6-9963-61645f706362,rev?*%
%TF.SameCoordinates,Original*%
%TF.FileFunction,Legend,Top*%
%TF.FilePolarity,Positive*%
%FSLAX46Y46*%
G04 Gerber Fmt 4.6, Leading zero omitted, Abs format (unit mm)*
G04 Created by KiCad (PCBNEW (5.1.6)-1) date 2020-08-01 22:19:46*
%MOMM*%
%LPD*%
G01*
G04 APERTURE LIST*
%ADD10C,0.300000*%
%ADD11C,0.010000*%
%ADD12C,0.120000*%
%ADD13C,0.150000*%
%ADD14C,0.100000*%
G04 APERTURE END LIST*
D10*
X53530000Y-74690000D02*
X53387142Y-74618571D01*
X53172857Y-74618571D01*
X52958571Y-74690000D01*
X52815714Y-74832857D01*
X52744285Y-74975714D01*
X52672857Y-75261428D01*
X52672857Y-75475714D01*
X52744285Y-75761428D01*
X52815714Y-75904285D01*
X52958571Y-76047142D01*
X53172857Y-76118571D01*
X53315714Y-76118571D01*
X53530000Y-76047142D01*
X53601428Y-75975714D01*
X53601428Y-75475714D01*
X53315714Y-75475714D01*
X54244285Y-76118571D02*
X54244285Y-74618571D01*
X54815714Y-74618571D01*
X54958571Y-74690000D01*
X55030000Y-74761428D01*
X55101428Y-74904285D01*
X55101428Y-75118571D01*
X55030000Y-75261428D01*
X54958571Y-75332857D01*
X54815714Y-75404285D01*
X54244285Y-75404285D01*
X55744285Y-76118571D02*
X55744285Y-74618571D01*
X56744285Y-74618571D02*
X57030000Y-74618571D01*
X57172857Y-74690000D01*
X57315714Y-74832857D01*
X57387142Y-75118571D01*
X57387142Y-75618571D01*
X57315714Y-75904285D01*
X57172857Y-76047142D01*
X57030000Y-76118571D01*
X56744285Y-76118571D01*
X56601428Y-76047142D01*
X56458571Y-75904285D01*
X56387142Y-75618571D01*
X56387142Y-75118571D01*
X56458571Y-74832857D01*
X56601428Y-74690000D01*
X56744285Y-74618571D01*
X73918571Y-58694285D02*
X72418571Y-58694285D01*
X72561428Y-58051428D02*
X72490000Y-57980000D01*
X72418571Y-57837142D01*
X72418571Y-57480000D01*
X72490000Y-57337142D01*
X72561428Y-57265714D01*
X72704285Y-57194285D01*
X72847142Y-57194285D01*
X73061428Y-57265714D01*
X73918571Y-58122857D01*
X73918571Y-57194285D01*
X73775714Y-55694285D02*
X73847142Y-55765714D01*
X73918571Y-55980000D01*
X73918571Y-56122857D01*
X73847142Y-56337142D01*
X73704285Y-56480000D01*
X73561428Y-56551428D01*
X73275714Y-56622857D01*
X73061428Y-56622857D01*
X72775714Y-56551428D01*
X72632857Y-56480000D01*
X72490000Y-56337142D01*
X72418571Y-56122857D01*
X72418571Y-55980000D01*
X72490000Y-55765714D01*
X72561428Y-55694285D01*
X73893571Y-50584285D02*
X72393571Y-50584285D01*
X72536428Y-49941428D02*
X72465000Y-49870000D01*
X72393571Y-49727142D01*
X72393571Y-49370000D01*
X72465000Y-49227142D01*
X72536428Y-49155714D01*
X72679285Y-49084285D01*
X72822142Y-49084285D01*
X73036428Y-49155714D01*
X73893571Y-50012857D01*
X73893571Y-49084285D01*
X73750714Y-47584285D02*
X73822142Y-47655714D01*
X73893571Y-47870000D01*
X73893571Y-48012857D01*
X73822142Y-48227142D01*
X73679285Y-48370000D01*
X73536428Y-48441428D01*
X73250714Y-48512857D01*
X73036428Y-48512857D01*
X72750714Y-48441428D01*
X72607857Y-48370000D01*
X72465000Y-48227142D01*
X72393571Y-48012857D01*
X72393571Y-47870000D01*
X72465000Y-47655714D01*
X72536428Y-47584285D01*
X68782857Y-33151428D02*
X68782857Y-31937142D01*
X68711428Y-31794285D01*
X68640000Y-31722857D01*
X68497142Y-31651428D01*
X68211428Y-31651428D01*
X68068571Y-31722857D01*
X67997142Y-31794285D01*
X67925714Y-31937142D01*
X67925714Y-33151428D01*
X67282857Y-32080000D02*
X66568571Y-32080000D01*
X67425714Y-31651428D02*
X66925714Y-33151428D01*
X66425714Y-31651428D01*
X65068571Y-31651428D02*
X65568571Y-32365714D01*
X65925714Y-31651428D02*
X65925714Y-33151428D01*
X65354285Y-33151428D01*
X65211428Y-33080000D01*
X65140000Y-33008571D01*
X65068571Y-32865714D01*
X65068571Y-32651428D01*
X65140000Y-32508571D01*
X65211428Y-32437142D01*
X65354285Y-32365714D01*
X65925714Y-32365714D01*
X64640000Y-33151428D02*
X63782857Y-33151428D01*
X64211428Y-31651428D02*
X64211428Y-33151428D01*
X53705714Y-31672857D02*
X53491428Y-31601428D01*
X53134285Y-31601428D01*
X52991428Y-31672857D01*
X52920000Y-31744285D01*
X52848571Y-31887142D01*
X52848571Y-32030000D01*
X52920000Y-32172857D01*
X52991428Y-32244285D01*
X53134285Y-32315714D01*
X53420000Y-32387142D01*
X53562857Y-32458571D01*
X53634285Y-32530000D01*
X53705714Y-32672857D01*
X53705714Y-32815714D01*
X53634285Y-32958571D01*
X53562857Y-33030000D01*
X53420000Y-33101428D01*
X53062857Y-33101428D01*
X52848571Y-33030000D01*
X52348571Y-33101428D02*
X51991428Y-31601428D01*
X51705714Y-32672857D01*
X51420000Y-31601428D01*
X51062857Y-33101428D01*
X50491428Y-31601428D02*
X50491428Y-33101428D01*
X50134285Y-33101428D01*
X49920000Y-33030000D01*
X49777142Y-32887142D01*
X49705714Y-32744285D01*
X49634285Y-32458571D01*
X49634285Y-32244285D01*
X49705714Y-31958571D01*
X49777142Y-31815714D01*
X49920000Y-31672857D01*
X50134285Y-31601428D01*
X50491428Y-31601428D01*
X30897142Y-41720000D02*
X30754285Y-41648571D01*
X30540000Y-41648571D01*
X30325714Y-41720000D01*
X30182857Y-41862857D01*
X30111428Y-42005714D01*
X30040000Y-42291428D01*
X30040000Y-42505714D01*
X30111428Y-42791428D01*
X30182857Y-42934285D01*
X30325714Y-43077142D01*
X30540000Y-43148571D01*
X30682857Y-43148571D01*
X30897142Y-43077142D01*
X30968571Y-43005714D01*
X30968571Y-42505714D01*
X30682857Y-42505714D01*
X31611428Y-43148571D02*
X31611428Y-41648571D01*
X32468571Y-43148571D01*
X32468571Y-41648571D01*
X33182857Y-43148571D02*
X33182857Y-41648571D01*
X33540000Y-41648571D01*
X33754285Y-41720000D01*
X33897142Y-41862857D01*
X33968571Y-42005714D01*
X34040000Y-42291428D01*
X34040000Y-42505714D01*
X33968571Y-42791428D01*
X33897142Y-42934285D01*
X33754285Y-43077142D01*
X33540000Y-43148571D01*
X33182857Y-43148571D01*
X39690000Y-55230000D02*
X39761428Y-55087142D01*
X39761428Y-54872857D01*
X39690000Y-54658571D01*
X39547142Y-54515714D01*
X39404285Y-54444285D01*
X39118571Y-54372857D01*
X38904285Y-54372857D01*
X38618571Y-54444285D01*
X38475714Y-54515714D01*
X38332857Y-54658571D01*
X38261428Y-54872857D01*
X38261428Y-55015714D01*
X38332857Y-55230000D01*
X38404285Y-55301428D01*
X38904285Y-55301428D01*
X38904285Y-55015714D01*
X38261428Y-55944285D02*
X39761428Y-55944285D01*
X39761428Y-56515714D01*
X39690000Y-56658571D01*
X39618571Y-56730000D01*
X39475714Y-56801428D01*
X39261428Y-56801428D01*
X39118571Y-56730000D01*
X39047142Y-56658571D01*
X38975714Y-56515714D01*
X38975714Y-55944285D01*
X38261428Y-57444285D02*
X39761428Y-57444285D01*
X39761428Y-58444285D02*
X39761428Y-58730000D01*
X39690000Y-58872857D01*
X39547142Y-59015714D01*
X39261428Y-59087142D01*
X38761428Y-59087142D01*
X38475714Y-59015714D01*
X38332857Y-58872857D01*
X38261428Y-58730000D01*
X38261428Y-58444285D01*
X38332857Y-58301428D01*
X38475714Y-58158571D01*
X38761428Y-58087142D01*
X39261428Y-58087142D01*
X39547142Y-58158571D01*
X39690000Y-58301428D01*
X39761428Y-58444285D01*
D11*
%TO.C,.*%
G36*
X58242713Y-66725214D02*
G01*
X58404673Y-66745139D01*
X58440319Y-66752087D01*
X58764159Y-66845986D01*
X59062707Y-66980703D01*
X59333675Y-67152244D01*
X59574773Y-67356615D01*
X59783711Y-67589825D01*
X59958200Y-67847878D01*
X60095950Y-68126783D01*
X60194672Y-68422546D01*
X60252077Y-68731173D01*
X60265874Y-69048672D01*
X60233775Y-69371049D01*
X60153489Y-69694310D01*
X60143837Y-69723266D01*
X60012240Y-70034203D01*
X59841110Y-70316434D01*
X59634458Y-70567413D01*
X59396297Y-70784596D01*
X59130638Y-70965438D01*
X58841494Y-71107394D01*
X58532876Y-71207918D01*
X58208798Y-71264465D01*
X57873270Y-71274491D01*
X57716813Y-71262847D01*
X57585464Y-71241957D01*
X57432864Y-71207369D01*
X57284600Y-71165056D01*
X57252947Y-71154566D01*
X56939468Y-71021209D01*
X56653681Y-70846917D01*
X56398721Y-70635229D01*
X56177724Y-70389682D01*
X55993826Y-70113813D01*
X55850163Y-69811160D01*
X55749870Y-69485259D01*
X55742087Y-69450319D01*
X55719383Y-69298208D01*
X55707336Y-69115310D01*
X55705946Y-68920508D01*
X55712337Y-68790984D01*
X56903200Y-68790984D01*
X56903200Y-68905240D01*
X56920806Y-69024673D01*
X56976637Y-69113801D01*
X57060227Y-69172892D01*
X57138098Y-69200828D01*
X57215120Y-69198958D01*
X57299069Y-69164247D01*
X57397718Y-69093665D01*
X57501514Y-69000754D01*
X57690600Y-68821141D01*
X57690600Y-69423782D01*
X57691103Y-69621856D01*
X57692882Y-69775855D01*
X57696339Y-69892496D01*
X57701880Y-69978496D01*
X57709906Y-70040573D01*
X57720821Y-70085444D01*
X57732039Y-70113749D01*
X57801156Y-70206405D01*
X57896077Y-70260463D01*
X58005870Y-70272414D01*
X58119601Y-70238746D01*
X58120236Y-70238418D01*
X58165383Y-70211150D01*
X58200856Y-70177408D01*
X58227799Y-70131149D01*
X58247361Y-70066330D01*
X58260688Y-69976908D01*
X58268926Y-69856840D01*
X58273222Y-69700083D01*
X58274722Y-69500593D01*
X58274800Y-69423782D01*
X58274800Y-68821141D01*
X58463885Y-69000754D01*
X58581641Y-69105001D01*
X58677935Y-69170738D01*
X58760540Y-69200997D01*
X58837233Y-69198813D01*
X58905172Y-69172892D01*
X58998090Y-69103937D01*
X59048838Y-69011402D01*
X59062200Y-68905240D01*
X59062200Y-68790984D01*
X58585207Y-68313992D01*
X58108215Y-67837000D01*
X57857184Y-67837000D01*
X56903200Y-68790984D01*
X55712337Y-68790984D01*
X55715214Y-68732686D01*
X55735139Y-68570726D01*
X55742087Y-68535080D01*
X55837612Y-68207348D01*
X55976558Y-67902733D01*
X56155528Y-67624629D01*
X56371128Y-67376433D01*
X56619962Y-67161539D01*
X56898635Y-66983344D01*
X57203751Y-66845242D01*
X57525080Y-66752087D01*
X57677191Y-66729383D01*
X57860089Y-66717336D01*
X58054891Y-66715946D01*
X58242713Y-66725214D01*
G37*
X58242713Y-66725214D02*
X58404673Y-66745139D01*
X58440319Y-66752087D01*
X58764159Y-66845986D01*
X59062707Y-66980703D01*
X59333675Y-67152244D01*
X59574773Y-67356615D01*
X59783711Y-67589825D01*
X59958200Y-67847878D01*
X60095950Y-68126783D01*
X60194672Y-68422546D01*
X60252077Y-68731173D01*
X60265874Y-69048672D01*
X60233775Y-69371049D01*
X60153489Y-69694310D01*
X60143837Y-69723266D01*
X60012240Y-70034203D01*
X59841110Y-70316434D01*
X59634458Y-70567413D01*
X59396297Y-70784596D01*
X59130638Y-70965438D01*
X58841494Y-71107394D01*
X58532876Y-71207918D01*
X58208798Y-71264465D01*
X57873270Y-71274491D01*
X57716813Y-71262847D01*
X57585464Y-71241957D01*
X57432864Y-71207369D01*
X57284600Y-71165056D01*
X57252947Y-71154566D01*
X56939468Y-71021209D01*
X56653681Y-70846917D01*
X56398721Y-70635229D01*
X56177724Y-70389682D01*
X55993826Y-70113813D01*
X55850163Y-69811160D01*
X55749870Y-69485259D01*
X55742087Y-69450319D01*
X55719383Y-69298208D01*
X55707336Y-69115310D01*
X55705946Y-68920508D01*
X55712337Y-68790984D01*
X56903200Y-68790984D01*
X56903200Y-68905240D01*
X56920806Y-69024673D01*
X56976637Y-69113801D01*
X57060227Y-69172892D01*
X57138098Y-69200828D01*
X57215120Y-69198958D01*
X57299069Y-69164247D01*
X57397718Y-69093665D01*
X57501514Y-69000754D01*
X57690600Y-68821141D01*
X57690600Y-69423782D01*
X57691103Y-69621856D01*
X57692882Y-69775855D01*
X57696339Y-69892496D01*
X57701880Y-69978496D01*
X57709906Y-70040573D01*
X57720821Y-70085444D01*
X57732039Y-70113749D01*
X57801156Y-70206405D01*
X57896077Y-70260463D01*
X58005870Y-70272414D01*
X58119601Y-70238746D01*
X58120236Y-70238418D01*
X58165383Y-70211150D01*
X58200856Y-70177408D01*
X58227799Y-70131149D01*
X58247361Y-70066330D01*
X58260688Y-69976908D01*
X58268926Y-69856840D01*
X58273222Y-69700083D01*
X58274722Y-69500593D01*
X58274800Y-69423782D01*
X58274800Y-68821141D01*
X58463885Y-69000754D01*
X58581641Y-69105001D01*
X58677935Y-69170738D01*
X58760540Y-69200997D01*
X58837233Y-69198813D01*
X58905172Y-69172892D01*
X58998090Y-69103937D01*
X59048838Y-69011402D01*
X59062200Y-68905240D01*
X59062200Y-68790984D01*
X58585207Y-68313992D01*
X58108215Y-67837000D01*
X57857184Y-67837000D01*
X56903200Y-68790984D01*
X55712337Y-68790984D01*
X55715214Y-68732686D01*
X55735139Y-68570726D01*
X55742087Y-68535080D01*
X55837612Y-68207348D01*
X55976558Y-67902733D01*
X56155528Y-67624629D01*
X56371128Y-67376433D01*
X56619962Y-67161539D01*
X56898635Y-66983344D01*
X57203751Y-66845242D01*
X57525080Y-66752087D01*
X57677191Y-66729383D01*
X57860089Y-66717336D01*
X58054891Y-66715946D01*
X58242713Y-66725214D01*
D12*
%TO.C,BOOT*%
X70870000Y-63150000D02*
X71170000Y-63150000D01*
X71170000Y-63150000D02*
X71170000Y-59850000D01*
X71170000Y-59850000D02*
X70870000Y-59850000D01*
X68670000Y-63150000D02*
X68370000Y-63150000D01*
X68370000Y-63150000D02*
X68370000Y-59850000D01*
X68370000Y-59850000D02*
X68670000Y-59850000D01*
%TO.C,J3*%
X30530000Y-69580000D02*
X33190000Y-69580000D01*
X30530000Y-46660000D02*
X30530000Y-69580000D01*
X33190000Y-46660000D02*
X33190000Y-69580000D01*
X30530000Y-46660000D02*
X33190000Y-46660000D01*
X30530000Y-45390000D02*
X30530000Y-44060000D01*
X30530000Y-44060000D02*
X31860000Y-44060000D01*
%TO.C,D1*%
X63295000Y-38185000D02*
X63295000Y-40470000D01*
X64765000Y-38185000D02*
X63295000Y-38185000D01*
X64765000Y-40470000D02*
X64765000Y-38185000D01*
%TO.C,D2*%
X63015000Y-40470000D02*
X63015000Y-38185000D01*
X63015000Y-38185000D02*
X61545000Y-38185000D01*
X61545000Y-38185000D02*
X61545000Y-40470000D01*
%TO.C,D3*%
X49935000Y-40810000D02*
X49935000Y-43095000D01*
X49935000Y-43095000D02*
X51405000Y-43095000D01*
X51405000Y-43095000D02*
X51405000Y-40810000D01*
%TO.C,J2*%
X67140000Y-79700000D02*
X67140000Y-77040000D01*
X44220000Y-79700000D02*
X67140000Y-79700000D01*
X44220000Y-77040000D02*
X67140000Y-77040000D01*
X44220000Y-79700000D02*
X44220000Y-77040000D01*
X42950000Y-79700000D02*
X41620000Y-79700000D01*
X41620000Y-79700000D02*
X41620000Y-78370000D01*
%TO.C,J3*%
X34480000Y-69610000D02*
X37140000Y-69610000D01*
X34480000Y-46690000D02*
X34480000Y-69610000D01*
X37140000Y-46690000D02*
X37140000Y-69610000D01*
X34480000Y-46690000D02*
X37140000Y-46690000D01*
X34480000Y-45420000D02*
X34480000Y-44090000D01*
X34480000Y-44090000D02*
X35810000Y-44090000D01*
%TO.C,J4*%
X40350000Y-36520000D02*
X40350000Y-35190000D01*
X41680000Y-36520000D02*
X40350000Y-36520000D01*
X42950000Y-36520000D02*
X42950000Y-33860000D01*
X42950000Y-33860000D02*
X53170000Y-33860000D01*
X42950000Y-36520000D02*
X53170000Y-36520000D01*
X53170000Y-36520000D02*
X53170000Y-33860000D01*
%TO.C,J5*%
X74640000Y-44020000D02*
X75970000Y-44020000D01*
X74640000Y-45350000D02*
X74640000Y-44020000D01*
X74640000Y-46620000D02*
X77300000Y-46620000D01*
X77300000Y-46620000D02*
X77300000Y-49220000D01*
X74640000Y-46620000D02*
X74640000Y-49220000D01*
X74640000Y-49220000D02*
X77300000Y-49220000D01*
%TO.C,J6*%
X74640000Y-56840000D02*
X77300000Y-56840000D01*
X74640000Y-54240000D02*
X74640000Y-56840000D01*
X77300000Y-54240000D02*
X77300000Y-56840000D01*
X74640000Y-54240000D02*
X77300000Y-54240000D01*
X74640000Y-52970000D02*
X74640000Y-51640000D01*
X74640000Y-51640000D02*
X75970000Y-51640000D01*
%TO.C,J7*%
X68410000Y-36520000D02*
X68410000Y-33860000D01*
X58190000Y-36520000D02*
X68410000Y-36520000D01*
X58190000Y-33860000D02*
X68410000Y-33860000D01*
X58190000Y-36520000D02*
X58190000Y-33860000D01*
X56920000Y-36520000D02*
X55590000Y-36520000D01*
X55590000Y-36520000D02*
X55590000Y-35190000D01*
%TO.C,U2*%
X57540000Y-59120000D02*
X57990000Y-59120000D01*
X57990000Y-59120000D02*
X57990000Y-58670000D01*
X51220000Y-59120000D02*
X50770000Y-59120000D01*
X50770000Y-59120000D02*
X50770000Y-58670000D01*
X57540000Y-51900000D02*
X57990000Y-51900000D01*
X57990000Y-51900000D02*
X57990000Y-52350000D01*
X51220000Y-51900000D02*
X50770000Y-51900000D01*
X50770000Y-51900000D02*
X50770000Y-52350000D01*
X50770000Y-52350000D02*
X49480000Y-52350000D01*
D13*
%TO.C,U3*%
X61610000Y-43200000D02*
X61610000Y-43725000D01*
X57310000Y-47500000D02*
X57310000Y-46975000D01*
X61610000Y-47500000D02*
X61610000Y-46975000D01*
X57310000Y-43200000D02*
X57835000Y-43200000D01*
X57310000Y-47500000D02*
X57835000Y-47500000D01*
X61610000Y-47500000D02*
X61085000Y-47500000D01*
X61610000Y-43200000D02*
X61085000Y-43200000D01*
D12*
%TO.C,Y1*%
X44290000Y-57310000D02*
X44290000Y-56510000D01*
X46690000Y-57310000D02*
X44690000Y-57310000D01*
X46690000Y-56510000D02*
X46690000Y-57310000D01*
X46690000Y-53710000D02*
X46690000Y-54710000D01*
X44690000Y-53710000D02*
X46690000Y-53710000D01*
X44290000Y-54710000D02*
X44290000Y-53710000D01*
X44290000Y-54710000D02*
X43890000Y-54710000D01*
X46690000Y-53510000D02*
X44690000Y-53510000D01*
X44690000Y-57310000D02*
X44290000Y-57310000D01*
X44690000Y-53710000D02*
X44290000Y-53710000D01*
X44690000Y-53510000D02*
X44290000Y-53510000D01*
%TO.C,BOOT*%
D13*
X67198571Y-62857142D02*
X67246190Y-62714285D01*
X67293809Y-62666666D01*
X67389047Y-62619047D01*
X67531904Y-62619047D01*
X67627142Y-62666666D01*
X67674761Y-62714285D01*
X67722380Y-62809523D01*
X67722380Y-63190476D01*
X66722380Y-63190476D01*
X66722380Y-62857142D01*
X66770000Y-62761904D01*
X66817619Y-62714285D01*
X66912857Y-62666666D01*
X67008095Y-62666666D01*
X67103333Y-62714285D01*
X67150952Y-62761904D01*
X67198571Y-62857142D01*
X67198571Y-63190476D01*
X66722380Y-62000000D02*
X66722380Y-61809523D01*
X66770000Y-61714285D01*
X66865238Y-61619047D01*
X67055714Y-61571428D01*
X67389047Y-61571428D01*
X67579523Y-61619047D01*
X67674761Y-61714285D01*
X67722380Y-61809523D01*
X67722380Y-62000000D01*
X67674761Y-62095238D01*
X67579523Y-62190476D01*
X67389047Y-62238095D01*
X67055714Y-62238095D01*
X66865238Y-62190476D01*
X66770000Y-62095238D01*
X66722380Y-62000000D01*
X66722380Y-60952380D02*
X66722380Y-60761904D01*
X66770000Y-60666666D01*
X66865238Y-60571428D01*
X67055714Y-60523809D01*
X67389047Y-60523809D01*
X67579523Y-60571428D01*
X67674761Y-60666666D01*
X67722380Y-60761904D01*
X67722380Y-60952380D01*
X67674761Y-61047619D01*
X67579523Y-61142857D01*
X67389047Y-61190476D01*
X67055714Y-61190476D01*
X66865238Y-61142857D01*
X66770000Y-61047619D01*
X66722380Y-60952380D01*
X66722380Y-60238095D02*
X66722380Y-59666666D01*
X67722380Y-59952380D02*
X66722380Y-59952380D01*
%TO.C,R5*%
D14*
X69950952Y-67006666D02*
X69760476Y-67140000D01*
X69950952Y-67235238D02*
X69550952Y-67235238D01*
X69550952Y-67082857D01*
X69570000Y-67044761D01*
X69589047Y-67025714D01*
X69627142Y-67006666D01*
X69684285Y-67006666D01*
X69722380Y-67025714D01*
X69741428Y-67044761D01*
X69760476Y-67082857D01*
X69760476Y-67235238D01*
X69550952Y-66644761D02*
X69550952Y-66835238D01*
X69741428Y-66854285D01*
X69722380Y-66835238D01*
X69703333Y-66797142D01*
X69703333Y-66701904D01*
X69722380Y-66663809D01*
X69741428Y-66644761D01*
X69779523Y-66625714D01*
X69874761Y-66625714D01*
X69912857Y-66644761D01*
X69931904Y-66663809D01*
X69950952Y-66701904D01*
X69950952Y-66797142D01*
X69931904Y-66835238D01*
X69912857Y-66854285D01*
%TO.C,C0_ST1*%
X62062857Y-50267380D02*
X62081904Y-50286428D01*
X62100952Y-50343571D01*
X62100952Y-50381666D01*
X62081904Y-50438809D01*
X62043809Y-50476904D01*
X62005714Y-50495952D01*
X61929523Y-50515000D01*
X61872380Y-50515000D01*
X61796190Y-50495952D01*
X61758095Y-50476904D01*
X61720000Y-50438809D01*
X61700952Y-50381666D01*
X61700952Y-50343571D01*
X61720000Y-50286428D01*
X61739047Y-50267380D01*
X61700952Y-50019761D02*
X61700952Y-49981666D01*
X61720000Y-49943571D01*
X61739047Y-49924523D01*
X61777142Y-49905476D01*
X61853333Y-49886428D01*
X61948571Y-49886428D01*
X62024761Y-49905476D01*
X62062857Y-49924523D01*
X62081904Y-49943571D01*
X62100952Y-49981666D01*
X62100952Y-50019761D01*
X62081904Y-50057857D01*
X62062857Y-50076904D01*
X62024761Y-50095952D01*
X61948571Y-50115000D01*
X61853333Y-50115000D01*
X61777142Y-50095952D01*
X61739047Y-50076904D01*
X61720000Y-50057857D01*
X61700952Y-50019761D01*
X62139047Y-49810238D02*
X62139047Y-49505476D01*
X62081904Y-49429285D02*
X62100952Y-49372142D01*
X62100952Y-49276904D01*
X62081904Y-49238809D01*
X62062857Y-49219761D01*
X62024761Y-49200714D01*
X61986666Y-49200714D01*
X61948571Y-49219761D01*
X61929523Y-49238809D01*
X61910476Y-49276904D01*
X61891428Y-49353095D01*
X61872380Y-49391190D01*
X61853333Y-49410238D01*
X61815238Y-49429285D01*
X61777142Y-49429285D01*
X61739047Y-49410238D01*
X61720000Y-49391190D01*
X61700952Y-49353095D01*
X61700952Y-49257857D01*
X61720000Y-49200714D01*
X61700952Y-49086428D02*
X61700952Y-48857857D01*
X62100952Y-48972142D02*
X61700952Y-48972142D01*
X62100952Y-48515000D02*
X62100952Y-48743571D01*
X62100952Y-48629285D02*
X61700952Y-48629285D01*
X61758095Y-48667380D01*
X61796190Y-48705476D01*
X61815238Y-48743571D01*
%TO.C,C1_G1*%
X57020476Y-41332857D02*
X57001428Y-41351904D01*
X56944285Y-41370952D01*
X56906190Y-41370952D01*
X56849047Y-41351904D01*
X56810952Y-41313809D01*
X56791904Y-41275714D01*
X56772857Y-41199523D01*
X56772857Y-41142380D01*
X56791904Y-41066190D01*
X56810952Y-41028095D01*
X56849047Y-40990000D01*
X56906190Y-40970952D01*
X56944285Y-40970952D01*
X57001428Y-40990000D01*
X57020476Y-41009047D01*
X57401428Y-41370952D02*
X57172857Y-41370952D01*
X57287142Y-41370952D02*
X57287142Y-40970952D01*
X57249047Y-41028095D01*
X57210952Y-41066190D01*
X57172857Y-41085238D01*
X57477619Y-41409047D02*
X57782380Y-41409047D01*
X58087142Y-40990000D02*
X58049047Y-40970952D01*
X57991904Y-40970952D01*
X57934761Y-40990000D01*
X57896666Y-41028095D01*
X57877619Y-41066190D01*
X57858571Y-41142380D01*
X57858571Y-41199523D01*
X57877619Y-41275714D01*
X57896666Y-41313809D01*
X57934761Y-41351904D01*
X57991904Y-41370952D01*
X58030000Y-41370952D01*
X58087142Y-41351904D01*
X58106190Y-41332857D01*
X58106190Y-41199523D01*
X58030000Y-41199523D01*
X58487142Y-41370952D02*
X58258571Y-41370952D01*
X58372857Y-41370952D02*
X58372857Y-40970952D01*
X58334761Y-41028095D01*
X58296666Y-41066190D01*
X58258571Y-41085238D01*
%TO.C,C1_ST1*%
X44677619Y-51612857D02*
X44658571Y-51631904D01*
X44601428Y-51650952D01*
X44563333Y-51650952D01*
X44506190Y-51631904D01*
X44468095Y-51593809D01*
X44449047Y-51555714D01*
X44430000Y-51479523D01*
X44430000Y-51422380D01*
X44449047Y-51346190D01*
X44468095Y-51308095D01*
X44506190Y-51270000D01*
X44563333Y-51250952D01*
X44601428Y-51250952D01*
X44658571Y-51270000D01*
X44677619Y-51289047D01*
X45058571Y-51650952D02*
X44830000Y-51650952D01*
X44944285Y-51650952D02*
X44944285Y-51250952D01*
X44906190Y-51308095D01*
X44868095Y-51346190D01*
X44830000Y-51365238D01*
X45134761Y-51689047D02*
X45439523Y-51689047D01*
X45515714Y-51631904D02*
X45572857Y-51650952D01*
X45668095Y-51650952D01*
X45706190Y-51631904D01*
X45725238Y-51612857D01*
X45744285Y-51574761D01*
X45744285Y-51536666D01*
X45725238Y-51498571D01*
X45706190Y-51479523D01*
X45668095Y-51460476D01*
X45591904Y-51441428D01*
X45553809Y-51422380D01*
X45534761Y-51403333D01*
X45515714Y-51365238D01*
X45515714Y-51327142D01*
X45534761Y-51289047D01*
X45553809Y-51270000D01*
X45591904Y-51250952D01*
X45687142Y-51250952D01*
X45744285Y-51270000D01*
X45858571Y-51250952D02*
X46087142Y-51250952D01*
X45972857Y-51650952D02*
X45972857Y-51250952D01*
X46430000Y-51650952D02*
X46201428Y-51650952D01*
X46315714Y-51650952D02*
X46315714Y-51250952D01*
X46277619Y-51308095D01*
X46239523Y-51346190D01*
X46201428Y-51365238D01*
%TO.C,C2_G1*%
X64372857Y-44004523D02*
X64391904Y-44023571D01*
X64410952Y-44080714D01*
X64410952Y-44118809D01*
X64391904Y-44175952D01*
X64353809Y-44214047D01*
X64315714Y-44233095D01*
X64239523Y-44252142D01*
X64182380Y-44252142D01*
X64106190Y-44233095D01*
X64068095Y-44214047D01*
X64030000Y-44175952D01*
X64010952Y-44118809D01*
X64010952Y-44080714D01*
X64030000Y-44023571D01*
X64049047Y-44004523D01*
X64049047Y-43852142D02*
X64030000Y-43833095D01*
X64010952Y-43795000D01*
X64010952Y-43699761D01*
X64030000Y-43661666D01*
X64049047Y-43642619D01*
X64087142Y-43623571D01*
X64125238Y-43623571D01*
X64182380Y-43642619D01*
X64410952Y-43871190D01*
X64410952Y-43623571D01*
X64449047Y-43547380D02*
X64449047Y-43242619D01*
X64030000Y-42937857D02*
X64010952Y-42975952D01*
X64010952Y-43033095D01*
X64030000Y-43090238D01*
X64068095Y-43128333D01*
X64106190Y-43147380D01*
X64182380Y-43166428D01*
X64239523Y-43166428D01*
X64315714Y-43147380D01*
X64353809Y-43128333D01*
X64391904Y-43090238D01*
X64410952Y-43033095D01*
X64410952Y-42995000D01*
X64391904Y-42937857D01*
X64372857Y-42918809D01*
X64239523Y-42918809D01*
X64239523Y-42995000D01*
X64410952Y-42537857D02*
X64410952Y-42766428D01*
X64410952Y-42652142D02*
X64010952Y-42652142D01*
X64068095Y-42690238D01*
X64106190Y-42728333D01*
X64125238Y-42766428D01*
%TO.C,C2_ST1*%
X51552857Y-46547380D02*
X51571904Y-46566428D01*
X51590952Y-46623571D01*
X51590952Y-46661666D01*
X51571904Y-46718809D01*
X51533809Y-46756904D01*
X51495714Y-46775952D01*
X51419523Y-46795000D01*
X51362380Y-46795000D01*
X51286190Y-46775952D01*
X51248095Y-46756904D01*
X51210000Y-46718809D01*
X51190952Y-46661666D01*
X51190952Y-46623571D01*
X51210000Y-46566428D01*
X51229047Y-46547380D01*
X51229047Y-46395000D02*
X51210000Y-46375952D01*
X51190952Y-46337857D01*
X51190952Y-46242619D01*
X51210000Y-46204523D01*
X51229047Y-46185476D01*
X51267142Y-46166428D01*
X51305238Y-46166428D01*
X51362380Y-46185476D01*
X51590952Y-46414047D01*
X51590952Y-46166428D01*
X51629047Y-46090238D02*
X51629047Y-45785476D01*
X51571904Y-45709285D02*
X51590952Y-45652142D01*
X51590952Y-45556904D01*
X51571904Y-45518809D01*
X51552857Y-45499761D01*
X51514761Y-45480714D01*
X51476666Y-45480714D01*
X51438571Y-45499761D01*
X51419523Y-45518809D01*
X51400476Y-45556904D01*
X51381428Y-45633095D01*
X51362380Y-45671190D01*
X51343333Y-45690238D01*
X51305238Y-45709285D01*
X51267142Y-45709285D01*
X51229047Y-45690238D01*
X51210000Y-45671190D01*
X51190952Y-45633095D01*
X51190952Y-45537857D01*
X51210000Y-45480714D01*
X51190952Y-45366428D02*
X51190952Y-45137857D01*
X51590952Y-45252142D02*
X51190952Y-45252142D01*
X51590952Y-44795000D02*
X51590952Y-45023571D01*
X51590952Y-44909285D02*
X51190952Y-44909285D01*
X51248095Y-44947380D01*
X51286190Y-44985476D01*
X51305238Y-45023571D01*
%TO.C,C3_G1*%
X60422857Y-51689523D02*
X60441904Y-51708571D01*
X60460952Y-51765714D01*
X60460952Y-51803809D01*
X60441904Y-51860952D01*
X60403809Y-51899047D01*
X60365714Y-51918095D01*
X60289523Y-51937142D01*
X60232380Y-51937142D01*
X60156190Y-51918095D01*
X60118095Y-51899047D01*
X60080000Y-51860952D01*
X60060952Y-51803809D01*
X60060952Y-51765714D01*
X60080000Y-51708571D01*
X60099047Y-51689523D01*
X60060952Y-51556190D02*
X60060952Y-51308571D01*
X60213333Y-51441904D01*
X60213333Y-51384761D01*
X60232380Y-51346666D01*
X60251428Y-51327619D01*
X60289523Y-51308571D01*
X60384761Y-51308571D01*
X60422857Y-51327619D01*
X60441904Y-51346666D01*
X60460952Y-51384761D01*
X60460952Y-51499047D01*
X60441904Y-51537142D01*
X60422857Y-51556190D01*
X60499047Y-51232380D02*
X60499047Y-50927619D01*
X60080000Y-50622857D02*
X60060952Y-50660952D01*
X60060952Y-50718095D01*
X60080000Y-50775238D01*
X60118095Y-50813333D01*
X60156190Y-50832380D01*
X60232380Y-50851428D01*
X60289523Y-50851428D01*
X60365714Y-50832380D01*
X60403809Y-50813333D01*
X60441904Y-50775238D01*
X60460952Y-50718095D01*
X60460952Y-50680000D01*
X60441904Y-50622857D01*
X60422857Y-50603809D01*
X60289523Y-50603809D01*
X60289523Y-50680000D01*
X60460952Y-50222857D02*
X60460952Y-50451428D01*
X60460952Y-50337142D02*
X60060952Y-50337142D01*
X60118095Y-50375238D01*
X60156190Y-50413333D01*
X60175238Y-50451428D01*
%TO.C,C3_ST1*%
X58127858Y-65072379D02*
X58146905Y-65091427D01*
X58165953Y-65148570D01*
X58165953Y-65186665D01*
X58146905Y-65243808D01*
X58108810Y-65281903D01*
X58070715Y-65300951D01*
X57994524Y-65319999D01*
X57937381Y-65319999D01*
X57861191Y-65300951D01*
X57823096Y-65281903D01*
X57785001Y-65243808D01*
X57765953Y-65186665D01*
X57765953Y-65148570D01*
X57785001Y-65091427D01*
X57804048Y-65072379D01*
X57765953Y-64939046D02*
X57765953Y-64691427D01*
X57918334Y-64824760D01*
X57918334Y-64767618D01*
X57937381Y-64729522D01*
X57956429Y-64710475D01*
X57994524Y-64691427D01*
X58089762Y-64691427D01*
X58127858Y-64710475D01*
X58146905Y-64729522D01*
X58165953Y-64767618D01*
X58165953Y-64881903D01*
X58146905Y-64919999D01*
X58127858Y-64939046D01*
X58204048Y-64615237D02*
X58204048Y-64310475D01*
X58146905Y-64234284D02*
X58165953Y-64177141D01*
X58165953Y-64081903D01*
X58146905Y-64043808D01*
X58127858Y-64024760D01*
X58089762Y-64005713D01*
X58051667Y-64005713D01*
X58013572Y-64024760D01*
X57994524Y-64043808D01*
X57975477Y-64081903D01*
X57956429Y-64158094D01*
X57937381Y-64196189D01*
X57918334Y-64215237D01*
X57880239Y-64234284D01*
X57842143Y-64234284D01*
X57804048Y-64215237D01*
X57785001Y-64196189D01*
X57765953Y-64158094D01*
X57765953Y-64062856D01*
X57785001Y-64005713D01*
X57765953Y-63891427D02*
X57765953Y-63662856D01*
X58165953Y-63777141D02*
X57765953Y-63777141D01*
X58165953Y-63319999D02*
X58165953Y-63548570D01*
X58165953Y-63434284D02*
X57765953Y-63434284D01*
X57823096Y-63472379D01*
X57861191Y-63510475D01*
X57880239Y-63548570D01*
%TO.C,C4_G1*%
X59272857Y-51719523D02*
X59291904Y-51738571D01*
X59310952Y-51795714D01*
X59310952Y-51833809D01*
X59291904Y-51890952D01*
X59253809Y-51929047D01*
X59215714Y-51948095D01*
X59139523Y-51967142D01*
X59082380Y-51967142D01*
X59006190Y-51948095D01*
X58968095Y-51929047D01*
X58930000Y-51890952D01*
X58910952Y-51833809D01*
X58910952Y-51795714D01*
X58930000Y-51738571D01*
X58949047Y-51719523D01*
X59044285Y-51376666D02*
X59310952Y-51376666D01*
X58891904Y-51471904D02*
X59177619Y-51567142D01*
X59177619Y-51319523D01*
X59349047Y-51262380D02*
X59349047Y-50957619D01*
X58930000Y-50652857D02*
X58910952Y-50690952D01*
X58910952Y-50748095D01*
X58930000Y-50805238D01*
X58968095Y-50843333D01*
X59006190Y-50862380D01*
X59082380Y-50881428D01*
X59139523Y-50881428D01*
X59215714Y-50862380D01*
X59253809Y-50843333D01*
X59291904Y-50805238D01*
X59310952Y-50748095D01*
X59310952Y-50710000D01*
X59291904Y-50652857D01*
X59272857Y-50633809D01*
X59139523Y-50633809D01*
X59139523Y-50710000D01*
X59310952Y-50252857D02*
X59310952Y-50481428D01*
X59310952Y-50367142D02*
X58910952Y-50367142D01*
X58968095Y-50405238D01*
X59006190Y-50443333D01*
X59025238Y-50481428D01*
%TO.C,C4_ST1*%
X42812620Y-58232857D02*
X42793572Y-58251904D01*
X42736429Y-58270952D01*
X42698334Y-58270952D01*
X42641191Y-58251904D01*
X42603096Y-58213809D01*
X42584048Y-58175714D01*
X42565001Y-58099523D01*
X42565001Y-58042380D01*
X42584048Y-57966190D01*
X42603096Y-57928095D01*
X42641191Y-57890000D01*
X42698334Y-57870952D01*
X42736429Y-57870952D01*
X42793572Y-57890000D01*
X42812620Y-57909047D01*
X43155477Y-58004285D02*
X43155477Y-58270952D01*
X43060239Y-57851904D02*
X42965001Y-58137619D01*
X43212620Y-58137619D01*
X43269762Y-58309047D02*
X43574524Y-58309047D01*
X43650715Y-58251904D02*
X43707858Y-58270952D01*
X43803096Y-58270952D01*
X43841191Y-58251904D01*
X43860239Y-58232857D01*
X43879286Y-58194761D01*
X43879286Y-58156666D01*
X43860239Y-58118571D01*
X43841191Y-58099523D01*
X43803096Y-58080476D01*
X43726905Y-58061428D01*
X43688810Y-58042380D01*
X43669762Y-58023333D01*
X43650715Y-57985238D01*
X43650715Y-57947142D01*
X43669762Y-57909047D01*
X43688810Y-57890000D01*
X43726905Y-57870952D01*
X43822143Y-57870952D01*
X43879286Y-57890000D01*
X43993572Y-57870952D02*
X44222143Y-57870952D01*
X44107858Y-58270952D02*
X44107858Y-57870952D01*
X44565001Y-58270952D02*
X44336429Y-58270952D01*
X44450715Y-58270952D02*
X44450715Y-57870952D01*
X44412620Y-57928095D01*
X44374524Y-57966190D01*
X44336429Y-57985238D01*
%TO.C,D1*%
X64190952Y-37995238D02*
X63790952Y-37995238D01*
X63790952Y-37900000D01*
X63810000Y-37842857D01*
X63848095Y-37804761D01*
X63886190Y-37785714D01*
X63962380Y-37766666D01*
X64019523Y-37766666D01*
X64095714Y-37785714D01*
X64133809Y-37804761D01*
X64171904Y-37842857D01*
X64190952Y-37900000D01*
X64190952Y-37995238D01*
X64190952Y-37385714D02*
X64190952Y-37614285D01*
X64190952Y-37500000D02*
X63790952Y-37500000D01*
X63848095Y-37538095D01*
X63886190Y-37576190D01*
X63905238Y-37614285D01*
%TO.C,D2*%
X62520952Y-38005238D02*
X62120952Y-38005238D01*
X62120952Y-37910000D01*
X62140000Y-37852857D01*
X62178095Y-37814761D01*
X62216190Y-37795714D01*
X62292380Y-37776666D01*
X62349523Y-37776666D01*
X62425714Y-37795714D01*
X62463809Y-37814761D01*
X62501904Y-37852857D01*
X62520952Y-37910000D01*
X62520952Y-38005238D01*
X62159047Y-37624285D02*
X62140000Y-37605238D01*
X62120952Y-37567142D01*
X62120952Y-37471904D01*
X62140000Y-37433809D01*
X62159047Y-37414761D01*
X62197142Y-37395714D01*
X62235238Y-37395714D01*
X62292380Y-37414761D01*
X62520952Y-37643333D01*
X62520952Y-37395714D01*
%TO.C,D3*%
X50820952Y-39955238D02*
X50420952Y-39955238D01*
X50420952Y-39860000D01*
X50440000Y-39802857D01*
X50478095Y-39764761D01*
X50516190Y-39745714D01*
X50592380Y-39726666D01*
X50649523Y-39726666D01*
X50725714Y-39745714D01*
X50763809Y-39764761D01*
X50801904Y-39802857D01*
X50820952Y-39860000D01*
X50820952Y-39955238D01*
X50420952Y-39593333D02*
X50420952Y-39345714D01*
X50573333Y-39479047D01*
X50573333Y-39421904D01*
X50592380Y-39383809D01*
X50611428Y-39364761D01*
X50649523Y-39345714D01*
X50744761Y-39345714D01*
X50782857Y-39364761D01*
X50801904Y-39383809D01*
X50820952Y-39421904D01*
X50820952Y-39536190D01*
X50801904Y-39574285D01*
X50782857Y-39593333D01*
%TO.C,R1*%
X70793333Y-54090952D02*
X70660000Y-53900476D01*
X70564761Y-54090952D02*
X70564761Y-53690952D01*
X70717142Y-53690952D01*
X70755238Y-53710000D01*
X70774285Y-53729047D01*
X70793333Y-53767142D01*
X70793333Y-53824285D01*
X70774285Y-53862380D01*
X70755238Y-53881428D01*
X70717142Y-53900476D01*
X70564761Y-53900476D01*
X71174285Y-54090952D02*
X70945714Y-54090952D01*
X71060000Y-54090952D02*
X71060000Y-53690952D01*
X71021904Y-53748095D01*
X70983809Y-53786190D01*
X70945714Y-53805238D01*
%TO.C,R2*%
X70773333Y-55100952D02*
X70640000Y-54910476D01*
X70544761Y-55100952D02*
X70544761Y-54700952D01*
X70697142Y-54700952D01*
X70735238Y-54720000D01*
X70754285Y-54739047D01*
X70773333Y-54777142D01*
X70773333Y-54834285D01*
X70754285Y-54872380D01*
X70735238Y-54891428D01*
X70697142Y-54910476D01*
X70544761Y-54910476D01*
X70925714Y-54739047D02*
X70944761Y-54720000D01*
X70982857Y-54700952D01*
X71078095Y-54700952D01*
X71116190Y-54720000D01*
X71135238Y-54739047D01*
X71154285Y-54777142D01*
X71154285Y-54815238D01*
X71135238Y-54872380D01*
X70906666Y-55100952D01*
X71154285Y-55100952D01*
%TO.C,R3*%
X70293333Y-45910952D02*
X70160000Y-45720476D01*
X70064761Y-45910952D02*
X70064761Y-45510952D01*
X70217142Y-45510952D01*
X70255238Y-45530000D01*
X70274285Y-45549047D01*
X70293333Y-45587142D01*
X70293333Y-45644285D01*
X70274285Y-45682380D01*
X70255238Y-45701428D01*
X70217142Y-45720476D01*
X70064761Y-45720476D01*
X70426666Y-45510952D02*
X70674285Y-45510952D01*
X70540952Y-45663333D01*
X70598095Y-45663333D01*
X70636190Y-45682380D01*
X70655238Y-45701428D01*
X70674285Y-45739523D01*
X70674285Y-45834761D01*
X70655238Y-45872857D01*
X70636190Y-45891904D01*
X70598095Y-45910952D01*
X70483809Y-45910952D01*
X70445714Y-45891904D01*
X70426666Y-45872857D01*
%TO.C,R4*%
X70338333Y-46940952D02*
X70205000Y-46750476D01*
X70109761Y-46940952D02*
X70109761Y-46540952D01*
X70262142Y-46540952D01*
X70300238Y-46560000D01*
X70319285Y-46579047D01*
X70338333Y-46617142D01*
X70338333Y-46674285D01*
X70319285Y-46712380D01*
X70300238Y-46731428D01*
X70262142Y-46750476D01*
X70109761Y-46750476D01*
X70681190Y-46674285D02*
X70681190Y-46940952D01*
X70585952Y-46521904D02*
X70490714Y-46807619D01*
X70738333Y-46807619D01*
%TO.C,R1_L1*%
X49380952Y-40881428D02*
X49190476Y-41014761D01*
X49380952Y-41110000D02*
X48980952Y-41110000D01*
X48980952Y-40957619D01*
X49000000Y-40919523D01*
X49019047Y-40900476D01*
X49057142Y-40881428D01*
X49114285Y-40881428D01*
X49152380Y-40900476D01*
X49171428Y-40919523D01*
X49190476Y-40957619D01*
X49190476Y-41110000D01*
X49380952Y-40500476D02*
X49380952Y-40729047D01*
X49380952Y-40614761D02*
X48980952Y-40614761D01*
X49038095Y-40652857D01*
X49076190Y-40690952D01*
X49095238Y-40729047D01*
X49419047Y-40424285D02*
X49419047Y-40119523D01*
X49380952Y-39833809D02*
X49380952Y-40024285D01*
X48980952Y-40024285D01*
X49380952Y-39490952D02*
X49380952Y-39719523D01*
X49380952Y-39605238D02*
X48980952Y-39605238D01*
X49038095Y-39643333D01*
X49076190Y-39681428D01*
X49095238Y-39719523D01*
%TO.C,R1_L2*%
X57068571Y-40030952D02*
X56935238Y-39840476D01*
X56840000Y-40030952D02*
X56840000Y-39630952D01*
X56992380Y-39630952D01*
X57030476Y-39650000D01*
X57049523Y-39669047D01*
X57068571Y-39707142D01*
X57068571Y-39764285D01*
X57049523Y-39802380D01*
X57030476Y-39821428D01*
X56992380Y-39840476D01*
X56840000Y-39840476D01*
X57449523Y-40030952D02*
X57220952Y-40030952D01*
X57335238Y-40030952D02*
X57335238Y-39630952D01*
X57297142Y-39688095D01*
X57259047Y-39726190D01*
X57220952Y-39745238D01*
X57525714Y-40069047D02*
X57830476Y-40069047D01*
X58116190Y-40030952D02*
X57925714Y-40030952D01*
X57925714Y-39630952D01*
X58230476Y-39669047D02*
X58249523Y-39650000D01*
X58287619Y-39630952D01*
X58382857Y-39630952D01*
X58420952Y-39650000D01*
X58440000Y-39669047D01*
X58459047Y-39707142D01*
X58459047Y-39745238D01*
X58440000Y-39802380D01*
X58211428Y-40030952D01*
X58459047Y-40030952D01*
%TO.C,R2_L1*%
X57068571Y-39080952D02*
X56935238Y-38890476D01*
X56840000Y-39080952D02*
X56840000Y-38680952D01*
X56992380Y-38680952D01*
X57030476Y-38700000D01*
X57049523Y-38719047D01*
X57068571Y-38757142D01*
X57068571Y-38814285D01*
X57049523Y-38852380D01*
X57030476Y-38871428D01*
X56992380Y-38890476D01*
X56840000Y-38890476D01*
X57220952Y-38719047D02*
X57240000Y-38700000D01*
X57278095Y-38680952D01*
X57373333Y-38680952D01*
X57411428Y-38700000D01*
X57430476Y-38719047D01*
X57449523Y-38757142D01*
X57449523Y-38795238D01*
X57430476Y-38852380D01*
X57201904Y-39080952D01*
X57449523Y-39080952D01*
X57525714Y-39119047D02*
X57830476Y-39119047D01*
X58116190Y-39080952D02*
X57925714Y-39080952D01*
X57925714Y-38680952D01*
X58459047Y-39080952D02*
X58230476Y-39080952D01*
X58344761Y-39080952D02*
X58344761Y-38680952D01*
X58306666Y-38738095D01*
X58268571Y-38776190D01*
X58230476Y-38795238D01*
%TO.C,U2*%
D13*
X53618095Y-49112380D02*
X53618095Y-49921904D01*
X53665714Y-50017142D01*
X53713333Y-50064761D01*
X53808571Y-50112380D01*
X53999047Y-50112380D01*
X54094285Y-50064761D01*
X54141904Y-50017142D01*
X54189523Y-49921904D01*
X54189523Y-49112380D01*
X54618095Y-49207619D02*
X54665714Y-49160000D01*
X54760952Y-49112380D01*
X54999047Y-49112380D01*
X55094285Y-49160000D01*
X55141904Y-49207619D01*
X55189523Y-49302857D01*
X55189523Y-49398095D01*
X55141904Y-49540952D01*
X54570476Y-50112380D01*
X55189523Y-50112380D01*
%TO.C,U3*%
X55028095Y-42822380D02*
X55028095Y-43631904D01*
X55075714Y-43727142D01*
X55123333Y-43774761D01*
X55218571Y-43822380D01*
X55409047Y-43822380D01*
X55504285Y-43774761D01*
X55551904Y-43727142D01*
X55599523Y-43631904D01*
X55599523Y-42822380D01*
X55980476Y-42822380D02*
X56599523Y-42822380D01*
X56266190Y-43203333D01*
X56409047Y-43203333D01*
X56504285Y-43250952D01*
X56551904Y-43298571D01*
X56599523Y-43393809D01*
X56599523Y-43631904D01*
X56551904Y-43727142D01*
X56504285Y-43774761D01*
X56409047Y-43822380D01*
X56123333Y-43822380D01*
X56028095Y-43774761D01*
X55980476Y-43727142D01*
%TD*%
M02*
