%TF.GenerationSoftware,KiCad,Pcbnew,(5.1.6)-1*%
%TF.CreationDate,2020-08-01T22:19:46+05:30*%
%TF.ProjectId,first,66697273-742e-46b6-9963-61645f706362,rev?*%
%TF.SameCoordinates,Original*%
%TF.FileFunction,Paste,Bot*%
%TF.FilePolarity,Positive*%
%FSLAX46Y46*%
G04 Gerber Fmt 4.6, Leading zero omitted, Abs format (unit mm)*
G04 Created by KiCad (PCBNEW (5.1.6)-1) date 2020-08-01 22:19:46*
%MOMM*%
%LPD*%
G01*
G04 APERTURE LIST*
%ADD10R,3.800000X2.000000*%
%ADD11R,1.500000X2.000000*%
G04 APERTURE END LIST*
%TO.C,C1_V1*%
G36*
G01*
X45755000Y-52317500D02*
X45755000Y-52662500D01*
G75*
G02*
X45607500Y-52810000I-147500J0D01*
G01*
X45312500Y-52810000D01*
G75*
G02*
X45165000Y-52662500I0J147500D01*
G01*
X45165000Y-52317500D01*
G75*
G02*
X45312500Y-52170000I147500J0D01*
G01*
X45607500Y-52170000D01*
G75*
G02*
X45755000Y-52317500I0J-147500D01*
G01*
G37*
G36*
G01*
X44785000Y-52317500D02*
X44785000Y-52662500D01*
G75*
G02*
X44637500Y-52810000I-147500J0D01*
G01*
X44342500Y-52810000D01*
G75*
G02*
X44195000Y-52662500I0J147500D01*
G01*
X44195000Y-52317500D01*
G75*
G02*
X44342500Y-52170000I147500J0D01*
G01*
X44637500Y-52170000D01*
G75*
G02*
X44785000Y-52317500I0J-147500D01*
G01*
G37*
%TD*%
%TO.C,C2_V1*%
G36*
G01*
X45160000Y-51592500D02*
X45160000Y-51247500D01*
G75*
G02*
X45307500Y-51100000I147500J0D01*
G01*
X45602500Y-51100000D01*
G75*
G02*
X45750000Y-51247500I0J-147500D01*
G01*
X45750000Y-51592500D01*
G75*
G02*
X45602500Y-51740000I-147500J0D01*
G01*
X45307500Y-51740000D01*
G75*
G02*
X45160000Y-51592500I0J147500D01*
G01*
G37*
G36*
G01*
X44190000Y-51592500D02*
X44190000Y-51247500D01*
G75*
G02*
X44337500Y-51100000I147500J0D01*
G01*
X44632500Y-51100000D01*
G75*
G02*
X44780000Y-51247500I0J-147500D01*
G01*
X44780000Y-51592500D01*
G75*
G02*
X44632500Y-51740000I-147500J0D01*
G01*
X44337500Y-51740000D01*
G75*
G02*
X44190000Y-51592500I0J147500D01*
G01*
G37*
%TD*%
D10*
%TO.C,U1*%
X44220000Y-42200000D03*
D11*
X44220000Y-48500000D03*
X41920000Y-48500000D03*
X46520000Y-48500000D03*
%TD*%
M02*
